<svg width="3596" height="1860" viewBox="0 0 3596 1860" fill="none" xmlns="http://www.w3.org/2000/svg">
<path d="M430.707 156.048C413.467 156.123 389.614 150.653 372.434 147.027C344.493 141.142 311.485 133.31 283.575 133.31C260.019 133.31 238.499 148.335 223.459 153.566C200.215 161.651 170.878 157.356 163.343 162.067C156.001 166.66 156.15 179.054 150.933 186.247C143.547 196.413 105.545 191.672 99.3182 202.581C97.1038 206.474 100.804 214.336 105.857 215.644C112.679 217.413 121.759 212.508 120.229 219.568C118.743 226.449 44.3295 243.361 43.1257 262.043C42.5163 271.539 43.7201 283.86 49.6649 286.223C56.3824 288.883 67.9152 281.259 66.6519 288.185C65.5075 294.471 48.2827 307.981 35.9474 311.057C29.4974 312.662 11.4105 316.184 8.51249 322.159C4.47008 330.481 13.2386 334.033 22.3191 335.832C31.3997 337.63 41.1936 323.912 49.6649 320.197C76.9511 308.248 96.866 298.826 124.152 286.877C130.305 284.187 156.729 286.505 174.459 281.645C192.888 276.592 202.667 264.376 209.741 263.351C216.712 262.34 232.094 269.89 239.138 269.236C260.42 267.274 263.601 266.694 275.074 277.083C286.547 287.456 298.541 309.259 294.023 329.352C291.793 339.28 299.967 364.114 296.638 373.774C293.309 383.434 281.613 385.871 282.193 396.037C282.653 404.032 290.53 420.693 291.407 428.659C294.35 455.603 270.021 470.168 254.579 492.46C244.667 506.757 231.41 519.434 228.036 534.504C224.663 549.574 231.157 567.052 233.268 581.542C234.784 592.005 223.786 601.085 230.652 611.593C238.558 623.69 255.055 625.384 261.356 638.374C265.325 646.562 258.503 661.365 260.703 674.309C262.352 684.074 273.662 691.95 273.112 699.797C272.607 707.109 262.991 705.237 263.972 711.553C264.656 715.937 278.18 723.963 282.267 733.772C285.061 740.474 283.991 753.166 288.806 758.606C299.477 770.673 311.233 777.436 314.279 765.472C318.857 747.504 275.327 667.726 296.638 661.9C302.925 660.191 299.046 671.724 303.178 685.426C308.483 703.022 321.473 725.33 327.358 739.657C333.511 754.638 347.808 762.871 352.192 773.631C356.725 784.792 350.899 801.482 354.154 813.49C356.175 820.951 366.489 824.191 370.472 830.522C380.296 846.157 416.231 863.144 443.012 872.952C456.462 877.872 463.953 866.815 475.679 870.337C495.281 876.222 502.192 897.549 508.999 899.733C533.506 907.625 536.939 894.844 555.383 912.797C566.365 923.483 562.174 935.372 569.754 950.041C577.333 964.709 602.94 974.83 611.025 988.057C616.138 996.424 628.651 992.322 635.963 987.7C643.275 983.093 646.173 971.546 639.961 965.556C632.709 958.557 620.195 963.327 610.981 959.27C596.743 952.998 599.195 932.206 604.635 917.642C610.074 903.062 614.637 883.311 601.647 874.751C588.985 866.398 569.085 876.861 557.998 866.517C538.217 848.059 576.962 813.49 568.476 791.926C563.022 778.09 539.733 787.661 529.88 798.792C520.026 809.924 525.926 823.908 512.283 829.823C494.078 837.7 456.745 820.683 451.513 806.951C444.454 788.418 462.615 769.291 462.615 749.451C462.615 732.464 467.059 717.765 479.112 706.693C488.757 697.836 504.897 684.49 520.769 682.156C536.642 679.823 552.499 688.265 565.845 686.734C573.648 685.842 585.493 674.22 597.204 671.709C610.386 668.885 617.46 680.21 629.87 681.503C642.28 682.796 635.191 698.757 637.881 715.239C639.515 725.211 645.683 742.629 655.343 739.657C668.481 735.614 665.434 736.075 666.058 726.534C666.683 717.007 662.328 707.971 661.228 698.49C658.479 674.889 671.988 647.558 693.895 638.374C721.983 626.618 733.591 610.092 744.455 588.973C749.79 578.585 752.302 566.799 758.692 557.035C775.01 532.141 810.382 528.158 832.05 507.753C840.462 499.832 847.358 489.102 858.489 486.01C866.529 483.781 875.016 486.129 883.294 487.214C897.65 489.102 904.843 480.63 920.612 475.681C933.096 471.758 956.547 473.125 953.857 461.994C952.401 455.975 930.807 456.004 924.535 448.246C919.883 442.495 929.157 429.729 932.382 421.465C936.96 409.71 933.274 402.546 944.138 397.285C958.881 390.166 975.481 403.111 985.959 405.132C997.284 407.317 968.006 429.669 975.719 438.259C985.275 448.9 1019.4 442.034 1033.65 443.03C1052.24 444.323 1050.95 427.306 1043.09 410.408C1029.79 400.124 1044.43 376.137 1042.81 359.402C1041.29 343.768 1018.46 337.526 1014.06 322.159C1009.66 306.792 1015.86 285.599 1003.61 275.775C988.188 263.395 957.885 297.993 946.427 287.932C934.582 277.514 965.717 255.533 935.013 240.493C924.431 235.321 901.99 230.149 888.629 238.531C879.92 243.986 876.992 261.121 872.296 269.89C867.6 278.658 861.135 279.074 855.309 287.531C850.315 294.783 858.995 308.382 854.001 315.62C848.19 324.046 816.267 328.103 811.526 337.184C806.562 346.71 806.934 367.249 797.838 372.971C788.743 378.693 781.104 376.018 780.821 365.273C780.628 358.288 793.335 341.999 789.961 335.876C786.112 328.891 773.509 331.224 762.527 326.082C752.956 321.594 745.213 309.259 737.692 307.787C721.538 304.607 710.51 302.942 713.973 286.832C714.939 282.344 709.901 273.382 712.873 269.89C717.748 264.168 734.17 253.898 746.193 247.671C758.885 241.102 775.129 243.822 780.168 241.132C789.397 236.213 793.186 224.561 801.732 222.183C813.488 218.914 820.517 231.294 829.167 230.684C845.188 229.54 837.43 224.249 854.655 223.491C861.417 223.194 867.51 229.48 872.296 225.453C884.007 215.6 861.491 210.279 869.026 198.018C873.529 190.676 899.077 190.825 904.962 175.146C909.554 162.914 942.369 145.838 950.692 160.12C955.269 167.967 972.271 169.142 975.526 174.492C980.936 183.424 970.785 191.806 961.809 196.71C954.14 200.901 945.475 202.937 936.32 198.672C924.149 192.995 908.945 203.026 909.54 211.735C910.193 221.529 941.686 217.769 944.821 220.236C961.125 233.077 963.116 243.109 980.757 249.633C997.105 255.697 1015.65 232.17 1021.27 226.761C1030.62 217.755 1008.86 200.619 1019.31 195.402C1026.34 191.895 1030.95 207.128 1038.91 210.428C1048.32 214.336 1059.72 204.825 1060.91 195.982C1061.67 190.349 1060.86 183.424 1056.55 179.723C1040.61 166.021 1047.13 147.77 1036.95 139.864C1029.94 134.409 1016.44 139.462 1008.86 133.978C999.156 126.964 999.424 106.856 987.297 102.62C974.976 98.3101 958.42 106.766 940.913 108.505C923.406 110.244 904.932 105.251 893.221 111.121C878.88 118.314 875.343 135.509 869.606 143.639C865.876 148.915 861.075 153.997 854.863 155.751C844.638 158.619 841.116 146.715 837.4 136.772C832.199 122.877 806.369 133.756 797.66 145.764C793.9 150.951 796.293 163.301 791.299 167.314C785.607 171.891 748.958 170.435 741.646 170.583C710.362 171.192 705.636 158.218 674.351 158.827C660.262 159.095 639.946 172.01 626.214 168.904C616.346 166.674 608.097 159.808 598.452 156.316C545.351 137.129 485.294 155.825 430.766 156.078L430.707 156.048Z" stroke="#4066D8" stroke-width="15"/>
<path d="M624.151 769.067C635.698 766.541 647.885 768.577 658.927 772.797C669.985 777.003 680.091 783.305 690.122 789.547C696.245 793.366 702.368 797.171 708.492 800.99C713.44 804.067 718.642 807.44 721.065 812.731C721.704 814.113 722.12 815.718 721.629 817.16C720.574 820.296 716.339 820.667 713.039 820.444C705.489 819.954 697.954 819.464 690.405 818.988C686.333 818.72 681.844 818.275 679.065 815.287C677.817 813.95 677.074 812.241 676.256 810.621C670.668 799.489 660.681 790.646 648.955 786.426C637.229 782.205 623.898 782.666 612.499 787.674C610.032 788.759 607.61 790.052 604.949 790.438C602.289 790.81 599.257 790.037 597.816 787.763C593.253 780.585 619.053 770.167 624.121 769.052L624.151 769.067Z" stroke="#4066D8" stroke-width="15"/>
<path d="M759.332 815.542C760.253 816.36 760.907 817.444 761.769 818.321C763.731 820.298 766.57 821.026 769.215 821.844C772.47 822.869 775.635 824.147 778.682 825.693C780.703 826.718 782.71 827.907 784.047 829.72C785.37 831.548 785.846 834.164 784.627 836.066C783.096 838.474 779.767 838.771 776.928 839.083C773.005 839.514 769.141 840.465 765.455 841.892C762.75 842.947 760.135 844.255 757.355 845.087C751.678 846.797 745.585 846.44 739.714 845.578C733.071 844.597 726.517 842.992 720.171 840.778C717.511 839.841 714.39 838.117 714.524 835.294C714.672 832.173 718.626 830.88 721.747 830.939C724.867 830.998 728.509 831.4 730.589 829.066C732.239 827.209 732.105 824.4 731.585 821.963C731.258 820.417 730.827 818.842 731.154 817.296C732.388 811.188 738.971 814.74 742.613 815.037C747.799 815.453 754.844 811.574 759.317 815.527L759.332 815.542Z" stroke="#4066D8" stroke-width="15"/>
<path d="M655.999 1052.26C650.144 1062.09 641.479 1069.89 634.658 1079.06C629.411 1086.12 623.645 1088.85 620.717 1097.01C617.775 1105.21 627.45 1123.48 626.603 1132.29C625.785 1140.73 618.681 1144.84 616.972 1153.23C614.847 1163.67 623.333 1176.08 631.18 1185.22C640.305 1195.86 645.819 1207.49 650.129 1219.19C653.384 1228.03 662.42 1235.69 665.808 1244.68C669.197 1253.67 674.829 1264.04 680.833 1272.77C688.725 1284.22 688.725 1295.61 699.856 1303.95C712.058 1313.09 725.508 1320.43 739.211 1327.12C743.729 1329.32 759.898 1337.76 765.115 1350.51C772.56 1368.67 768.473 1393.53 768.444 1403.97C768.369 1432.35 771 1462.24 765.115 1481.84C760.002 1498.86 779.501 1526.16 780.14 1543.91C780.734 1560.65 783.662 1577.76 778.178 1592.25C769.737 1614.6 777.718 1607.51 785.371 1630.15C788.136 1638.31 790.558 1658.12 793.872 1668.05C795.804 1673.83 803.072 1679.5 808.244 1694.19C813.549 1709.23 824.577 1728.12 824.577 1747.76C824.577 1764.1 841.43 1780.39 846.141 1792.84C849.307 1801.24 852.116 1810.54 859.859 1815.06C865.729 1818.48 867.736 1822.73 874.364 1824.18C880.294 1825.48 889.092 1822.09 894.487 1824.87C902.765 1829.12 907.402 1840.12 915.709 1844.34C919.142 1846.08 927.956 1843.94 931.73 1845.12C943.04 1848.69 956.461 1857.3 959.582 1846.18C961.439 1839.54 951.675 1837.49 944.14 1834.02C940.113 1832.17 936.427 1830.69 933.038 1830.1C928.58 1829.31 924.626 1822.43 920.629 1820.31C912.782 1816.13 913.198 1809.16 909.527 1802.66C906.614 1797.54 898.841 1793.12 897.117 1786.33C895.453 1779.81 900.758 1778.1 903.003 1773.92C904.741 1770.68 901.085 1765.76 902.349 1762.17C904.4 1756.33 913.896 1756.24 913.45 1747.79C912.797 1735.38 899.733 1739.29 894.502 1727.54C891.529 1720.86 899.139 1716.91 903.003 1706.63C904.4 1702.93 898.589 1698.27 900.387 1692.26C902.274 1685.95 909.973 1684.47 911.489 1676.58C914.758 1659.59 925.132 1640.91 932.399 1633.45C937.779 1627.92 953.369 1625.87 960.488 1618.42C967.622 1610.98 966.299 1598.12 969.405 1591.06C974.859 1578.71 985.946 1572.72 992.5 1560.92C1002.29 1543.28 997.301 1533.87 1008.83 1517.79C1010.87 1514.97 1019.86 1508.94 1023.2 1504.08C1030.13 1494.01 1032.03 1483.24 1032.42 1476.06C1032.72 1470.35 1031.17 1464.66 1031.36 1458.96C1031.87 1443.74 1038.77 1431.98 1051.96 1424.37C1065.16 1416.76 1094.44 1411.31 1105.54 1404.77C1111.56 1401.23 1114.95 1392.78 1117.3 1381.24C1120.15 1367.27 1130.66 1350.81 1132.32 1331.59C1134.77 1303.23 1125.94 1286.81 1138.21 1266.26C1142.92 1258.37 1145.52 1252.69 1151.92 1241.42C1158.43 1229.98 1170.52 1222.38 1172.83 1213.33C1176.33 1199.66 1181.41 1182.67 1174.14 1167.6C1165.64 1149.96 1159.19 1160.14 1149.96 1154.54C1140.67 1148.89 1132.62 1136.81 1120.56 1129.71C1114.53 1126.15 1103.24 1130.08 1092.48 1128.4C1083.44 1126.99 1051.62 1105.23 1045.44 1103.56C1013.49 1095 1003.13 1093.86 990.212 1063.41C986.392 1054.42 984.609 1044.55 979.66 1036.12C968.335 1016.85 944.259 1010.25 922.888 1003.69C901.516 997.139 884.693 978.116 872.283 964.399C868.092 959.762 873.977 947.293 869.014 943.488C865.982 941.17 863.024 937.127 859.22 936.949C831.933 935.7 820.861 947.501 794.541 940.218C784.628 937.469 762.484 918.372 742.926 916.692C733.623 915.905 726.058 930.841 718.538 931.39C712.712 931.807 707.808 932.743 704.389 934.333C690.122 940.976 696.513 957.042 681.131 960.371C673.625 961.991 665.11 959.851 658.6 963.938C643.753 973.271 657.307 992.383 660.71 1003.8C665.555 1020.12 664.961 1037.36 656.059 1052.26H655.999Z" stroke="#4066D8" stroke-width="15"/>
<path d="M1129.69 83.0022C1137.26 83.7156 1150.56 83.7602 1157.13 87.5797C1163.69 91.3992 1168.17 101.119 1166.27 108.49C1164.5 115.371 1159.8 123.798 1159.09 130.872C1158.14 140.309 1176.7 149.568 1171.5 157.505C1169.51 160.536 1160.99 160.388 1157.78 162.082C1137.92 172.53 1140.75 201.956 1144.06 224.145C1145.9 236.51 1144.24 253.423 1155.82 258.119C1161.09 260.259 1169.45 256.083 1174.77 258.119C1180.32 260.244 1179.43 265.223 1184.83 267.735C1196.88 273.323 1206.48 263.499 1216.57 254.864C1226.66 246.23 1229.74 241.489 1237.48 230.684C1245.23 219.88 1249.58 208.332 1262.32 204.542C1268.83 202.61 1289.77 201.525 1296.4 200.084C1311.79 196.71 1327.64 182.249 1342.02 175.799C1347.22 173.466 1362.29 174.269 1376.65 170.568C1392.85 166.392 1408.51 157.653 1415.6 154.071C1421.73 150.98 1431.53 154.235 1435.46 145.749C1442.47 130.56 1433.23 123.813 1434.15 120.261C1436.68 110.63 1450.36 114.613 1457.68 107.851C1470.64 95.8726 1481.07 89.2293 1484.46 71.9153C1485.26 67.8135 1481.5 59.4314 1483.15 55.5822C1485.11 51.0048 1491.43 49.5037 1494.9 49.043C1507.83 47.3785 1508.77 42.2066 1521.69 40.542C1527.59 39.7841 1538.76 39.2045 1543.25 35.3107C1547.74 31.4169 1549.37 27.7312 1544.71 24.0603C1542.82 22.5741 1540.35 22.0688 1537.99 21.6229C1526.29 19.4234 1502.74 24.2089 1484.44 16.3619C1453.83 3.23888 1414.16 7.60826 1398.85 11.1305C1379.32 15.6336 1360.66 11.1156 1347.24 12.4383C1333.06 13.8354 1323.59 19.8247 1311.96 20.2854C1283.91 21.3703 1277.49 18.3831 1269.48 18.9775C1260.5 19.6463 1232.31 26.4828 1228.31 26.8246C1195.6 29.6037 1204.64 23.5104 1172.77 31.402C1162.03 34.0623 1149.56 36.0686 1142.07 40.542C1136.07 44.1386 1135.32 50.3211 1125.74 52.2977C1111.68 55.1958 1095.24 50.5589 1083.26 55.5673C1076.31 58.4802 1076.5 66.0895 1081.95 73.2083C1084.32 76.2847 1087.44 79.2125 1091.75 81.7093C1103.18 88.3079 1116.49 81.7687 1129.65 83.0171L1129.69 83.0022Z" stroke="#4066D8" stroke-width="15"/>
<path d="M1457.58 192.148C1469.87 191.435 1483.16 192.891 1492.51 200.902C1494.2 207.441 1487.86 213.445 1481.45 215.571C1475.05 217.696 1467.91 217.77 1462.04 221.114C1458.86 222.927 1456.28 225.602 1453.29 227.728C1440.67 236.689 1420.99 233.256 1412.15 220.549C1410.58 218.29 1409.33 215.808 1407.54 213.713C1405.61 211.424 1403.12 209.656 1401.24 207.307C1399.37 204.959 1398.17 201.719 1399.37 198.97C1403.32 190.008 1449.14 192.624 1457.57 192.134L1457.58 192.148Z" stroke="#4066D8" stroke-width="15"/>
<path d="M1557.74 328.103C1564.93 333.245 1573.88 337.807 1576.11 346.353C1576.92 349.489 1576.31 353.457 1573.43 354.928C1571.69 355.82 1569.58 355.553 1567.69 356.102C1563.21 357.395 1561.32 362.597 1560.07 367.1C1557.29 377.176 1554.53 387.238 1551.75 397.314C1551.44 398.444 1551.15 399.737 1551.81 400.703C1552.7 402.011 1554.65 401.832 1556.19 401.52L1576.02 397.463C1585.53 395.516 1595.14 393.539 1603.93 389.408C1612.71 385.276 1620.72 378.707 1624.64 369.835C1625.28 368.393 1625.8 366.773 1625.28 365.287C1624.04 361.705 1618.49 362.344 1615.73 359.714C1613.68 357.752 1613.71 354.542 1613.2 351.748C1610.97 339.249 1596.59 332.219 1592.88 320.077C1591.21 314.564 1591.95 308.649 1591.81 302.897C1591.7 297.131 1590.36 290.844 1585.81 287.307C1581.03 283.592 1574.26 284.082 1568.32 285.301C1545.12 290.042 1536.59 312.988 1557.69 328.103H1557.74Z" stroke="#4066D8" stroke-width="15"/>
<path d="M3040.54 833.316C3048.33 841.951 3035.76 856.099 3032.01 867.097C3030.75 870.798 3029.37 874.736 3030.25 878.541C3031.81 885.392 3039.67 888.647 3046.62 889.717C3053.58 890.787 3061.26 891.04 3066.48 895.751C3071.69 900.462 3070.59 911.638 3063.58 912.024C3059.7 912.232 3056.55 909.097 3053.01 907.492C3047.41 904.935 3040.89 906.288 3034.76 905.545C3020.05 903.761 3009.29 889.657 3006.47 875.108C3005.02 867.721 3003.32 837.7 3010.03 832.008C3017.18 825.96 3034.75 826.896 3040.53 833.301L3040.54 833.316Z" stroke="#4066D8" stroke-width="15"/>
<path d="M3114.6 488.598C3111.48 492.625 3106.76 497.456 3109.31 501.869C3110.58 504.054 3113.21 504.961 3115.54 505.912C3127.52 510.816 3136.94 521.591 3140.2 534.12C3143.45 546.648 3140.48 560.648 3132.41 570.769C3129.78 574.068 3126.61 577.011 3124.59 580.711C3122.54 584.471 3121.6 589.093 3118.24 591.769C3111.2 597.386 3097.59 591.367 3093.41 599.363C3091.64 602.737 3092.82 607.165 3090.81 610.405C3089.06 613.229 3085.52 614.225 3082.49 615.607C3071.82 620.526 3065.71 633.634 3068.78 644.974C3071.86 656.299 3083.79 664.517 3095.48 663.343C3107.32 662.169 3109.7 649.507 3113.96 638.39C3116.98 630.513 3131.8 639.207 3138.2 633.723C3141.31 631.048 3142.32 626.753 3143.41 622.8C3144.49 618.847 3146.13 614.567 3149.77 612.709C3153.41 610.851 3157.93 612.516 3161.66 614.225C3167.01 616.662 3181.63 612.486 3184.65 602.112C3185.81 598.1 3185.18 593.82 3184.56 589.703C3183.37 582.004 3182.19 574.291 3181.01 566.593C3179.22 554.986 3177.05 542.561 3168.86 534.134C3165 530.166 3159.96 527.283 3156.96 522.631C3153.96 517.98 3154.25 510.4 3159.38 508.305C3161.85 507.294 3164.85 507.829 3167.1 506.387C3170.11 504.47 3170.23 500.235 3170.81 496.698C3171.39 493.16 3175.74 493.25 3177.57 490.173C3181.9 482.906 3172.97 481.197 3167.88 479.458C3156.17 475.445 3123.54 454.743 3118.26 465.949C3114.83 473.246 3119.73 481.984 3114.56 488.642L3114.6 488.598Z" stroke="#4066D8" stroke-width="15"/>
<path d="M2910.36 1054.96C2904.31 1057.91 2897.86 1060.71 2893.67 1065.98C2886.89 1074.46 2887.93 1086.59 2889.51 1097.33C2890.32 1102.97 2891.22 1108.69 2893.71 1113.82C2897.62 1121.84 2905.04 1127.55 2912.56 1132.35C2929.46 1143.11 2949.77 1150.97 2969.35 1146.68C2976.39 1145.13 2983.89 1141.1 2985.46 1134.06C2987.3 1125.74 2980.33 1115.69 2985.89 1109.24C2988.68 1106 2993.75 1105.26 2996.17 1101.72C2998.91 1097.72 2997.23 1091.61 3000.54 1088.06C3003.14 1085.28 3007.87 1085.28 3010.33 1082.37C3011.97 1080.44 3012.19 1077.7 3012.09 1075.19C3011.49 1062.44 3004.08 1049.88 3007.33 1037.53C3010.05 1027.28 3019.7 1016.41 3013.5 1007.79C3011.43 1004.92 3008.05 1003.35 3004.81 1001.91C2980.19 990.954 2976.57 1004.88 2960.23 1020.37C2945.51 1034.35 2928.62 1046.08 2910.36 1054.93V1054.96Z" stroke="#4066D8" stroke-width="15"/>
<path d="M3052.03 1071.46C3047.65 1070.36 3042.98 1069.26 3038.66 1070.59C3035.51 1071.55 3032.88 1073.71 3030.41 1075.88C3027.18 1078.73 3024 1081.81 3022.16 1085.7C3018.59 1093.21 3020.54 1102.24 3018.07 1110.18C3015.84 1117.31 3010.03 1123.78 3011.16 1131.16C3011.83 1135.53 3014.83 1139.14 3016.62 1143.19C3020.23 1151.39 3012.28 1162.02 3016.97 1169.65C3022.34 1178.39 3036.99 1164.02 3047.11 1165.72C3050.62 1166.31 3054.17 1168.11 3057.56 1167.04C3063.06 1165.3 3063.71 1157.78 3062.7 1152.1C3061.43 1144.95 3059.17 1137.97 3058.53 1130.75C3057.89 1123.51 3059.12 1115.71 3063.95 1110.28C3066.27 1107.68 3069.3 1105.75 3071.38 1102.94C3074.76 1098.39 3075.14 1092.16 3078.44 1087.56C3080.45 1084.76 3083.61 1082.3 3083.6 1078.85C3083.59 1075.5 3080.29 1072.9 3076.96 1072.47C3068.02 1071.31 3061.92 1073.93 3052.06 1071.45L3052.03 1071.46Z" stroke="#4066D8" stroke-width="15"/>
<path d="M3167.6 1116.41C3172.95 1123.57 3167.24 1135.32 3173.16 1142.03C3176.71 1146.04 3182.74 1146.23 3188.06 1146.9C3200.31 1148.45 3211.63 1153.98 3222.71 1159.42C3227.21 1161.63 3231.82 1163.92 3235.25 1167.57C3240.33 1172.98 3242.17 1181.23 3239.89 1188.29C3238.83 1191.53 3237 1194.52 3236.36 1197.88C3235.72 1201.22 3236.78 1205.29 3239.92 1206.63C3241.36 1207.24 3242.98 1207.17 3244.54 1207.24C3253.51 1207.63 3261.5 1212.69 3269.77 1216.22C3278.05 1219.74 3288.38 1221.48 3295.42 1215.9C3298.9 1213.16 3300.98 1209.04 3303.64 1205.49C3306.3 1201.93 3310.17 1198.67 3314.6 1198.93C3317.39 1199.11 3319.89 1200.66 3322.13 1202.32C3326.25 1205.35 3329.98 1208.88 3333.25 1212.81C3335.55 1215.58 3337.62 1218.55 3340.14 1221.12C3347.31 1228.4 3357.44 1231.78 3367.16 1234.91C3370.7 1236.04 3374.36 1237.2 3378.04 1236.82C3381.73 1236.43 3385.49 1234.1 3386.3 1230.47C3387.18 1226.64 3384.52 1222.79 3381.25 1220.6C3377.98 1218.42 3374.1 1217.33 3370.66 1215.44C3363.48 1211.52 3358.44 1203.93 3357.59 1195.8C3356.95 1189.6 3358.5 1182.85 3355.36 1177.47C3351.72 1171.25 3343.4 1169.61 3338.29 1164.51C3334.07 1160.32 3332.45 1154.23 3329.1 1149.31C3322.77 1139.98 3311.21 1135.98 3300.46 1132.56C3286.17 1128.01 3271.87 1123.48 3257.59 1118.93C3248.95 1116.18 3239.83 1113.42 3230.95 1115.31C3224.41 1116.7 3218.62 1120.55 3212.08 1121.98C3205.54 1123.4 3197.22 1121.13 3195.48 1114.68C3194.6 1111.41 3195.64 1107.8 3194.51 1104.6C3192.77 1099.66 3186.8 1097.8 3181.6 1097.2C3174.27 1096.37 3166.81 1096.71 3159.57 1098.2C3156.08 1098.91 3152.2 1100.27 3150.77 1103.53C3147.65 1110.73 3164.49 1112.24 3167.61 1116.42L3167.6 1116.41Z" stroke="#4066D8" stroke-width="15"/>
<path d="M2757.6 1019.21C2760.7 1021.6 2763.23 1024.65 2765.78 1027.6C2782 1046.4 2800.44 1063.14 2819.09 1079.52C2827.06 1086.52 2835.31 1093.78 2839.62 1103.47C2841.06 1106.71 2842.04 1110.19 2844.02 1113.12C2846.6 1116.92 2850.66 1119.48 2853.48 1123.11C2858.73 1129.81 2859.04 1139.02 2858.76 1147.52C2858.54 1154.15 2858.28 1161.43 2862.39 1166.65C2864.73 1169.64 2868.23 1171.5 2871.75 1172.95C2891.1 1180.9 2912.93 1178.56 2933.71 1181.13C2939.34 1181.82 2945.09 1182.97 2949.8 1186.11C2954.57 1189.29 2957.98 1194.34 2963.06 1196.97C2965.54 1198.25 2968.37 1198.93 2970.46 1200.77C2972.56 1202.62 2973.43 1206.3 2971.28 1208.06C2970.52 1208.68 2969.53 1208.93 2968.57 1209.14C2945.32 1214.45 2921.18 1207.86 2898.23 1201.31C2888.32 1198.48 2878.41 1195.65 2868.49 1192.82C2862.03 1190.98 2855.48 1189.09 2849.77 1185.56C2837.36 1177.87 2830.82 1163.75 2822.38 1151.83C2817.1 1144.37 2810.93 1137.61 2805.29 1130.43C2792.98 1114.78 2783.28 1097.25 2774.34 1079.47C2771.65 1074.14 2768.95 1068.64 2764.63 1064.52C2762.5 1062.5 2760 1060.83 2758.18 1058.55C2755.29 1054.95 2754.31 1050.19 2751.96 1046.23C2746.87 1037.62 2736.09 1033.79 2730.58 1025.45C2728.96 1023 2727.83 1019.96 2728.66 1017.14C2731.57 1007.32 2752.72 1015.48 2757.6 1019.22V1019.21Z" stroke="#4066D8" stroke-width="15"/>
<path d="M2920.44 1412.04C2917.45 1426.39 2908.5 1438.99 2905.63 1453.37C2902.47 1469.24 2906.99 1485.48 2909.9 1501.4C2912.81 1517.32 2913.81 1535 2904.76 1548.42C2900.55 1554.66 2894 1561.26 2896.36 1568.41C2898.4 1574.55 2905.92 1576.75 2912.38 1577.17C2928.92 1578.24 2940.91 1568.23 2956.52 1562.21C2967 1558.17 2988.73 1560.64 2998.99 1556.33C3020.77 1547.22 3035.88 1538.32 3058.96 1533.43C3072.89 1530.48 3086.55 1518.43 3101.24 1531.79C3111.78 1541.36 3125.78 1539.21 3129.01 1553.07C3129.67 1555.93 3127.25 1566.69 3128.35 1569.41C3133.76 1582.72 3162 1583.64 3161.39 1598C3161.24 1601.58 3159.38 1605.16 3160.36 1608.6C3161.49 1612.55 3165.8 1614.54 3169.68 1615.9C3190.65 1623.15 3213.27 1625.6 3235.31 1623.03C3250.07 1621.3 3265.42 1616.85 3275.37 1605.8C3281.32 1599.18 3284.82 1590.76 3289.25 1583.04C3305.79 1554.17 3340.7 1540.8 3358.32 1512.58C3366.47 1499.56 3366.53 1479.05 3371.8 1464.62C3374.63 1456.89 3377.5 1448.92 3377.14 1440.7C3376.22 1419.5 3355.16 1405.12 3347.13 1385.48C3343.61 1376.87 3342.05 1366.44 3334.28 1361.33C3330.32 1358.73 3325.29 1357.98 3321.59 1355.03C3315.45 1350.11 3315.05 1341.12 3314.66 1333.25C3314.18 1323.53 3318.52 1311.05 3316.5 1301.54C3312.8 1284.13 3300.97 1270.08 3292.44 1254.47C3291.22 1252.23 3289.81 1249.89 3287.51 1248.78C3280.72 1245.51 3275.77 1255.09 3273.2 1262.18C3270.4 1269.88 3263.52 1289.17 3261.62 1304.15C3260.1 1316.13 3264.44 1324.51 3256.76 1328.27C3250.32 1331.43 3243.47 1322.88 3236.83 1320.19C3229.23 1317.11 3221.46 1313.9 3215.46 1308.33C3209.45 1302.76 3205.5 1294.2 3207.65 1286.29C3209.33 1280.09 3214.33 1275.4 3217.26 1269.67C3220.18 1263.95 3219.98 1255.33 3214.05 1252.87C3211.13 1251.65 3207.83 1252.38 3204.7 1252.61C3187.98 1253.85 3171.75 1240.6 3155.59 1245.05C3143.76 1248.3 3136.39 1260.07 3132.11 1271.56C3128.9 1280.17 3124 1291.16 3114.84 1290.29C3110.96 1289.92 3107.72 1287.27 3104.16 1285.68C3091.94 1280.18 3078.04 1287.33 3066.59 1294.27C3055.96 1300.71 3045.01 1307.44 3037.99 1317.68C3032.06 1326.34 3029.33 1337 3022.63 1345.08C3015.54 1353.63 3004.88 1358.25 2994.66 1362.58C2977.04 1370.01 2959.52 1377.68 2941.81 1384.88C2926.66 1391.05 2923.91 1395.39 2920.44 1412.08V1412.04Z" stroke="#4066D8" stroke-width="15"/>
<path d="M3462.77 1674.6C3456.62 1679.98 3450.2 1685.49 3442.34 1687.77C3437.08 1689.28 3431.46 1689.24 3426.23 1690.83C3421.31 1692.33 3416.94 1695.21 3412.66 1698.05C3402.54 1704.77 3392.42 1711.49 3382.3 1718.2C3378.27 1720.88 3373.91 1724.02 3372.93 1728.74C3372.64 1730.14 3372.73 1731.73 3373.63 1732.81C3374.66 1734.03 3376.4 1734.31 3377.97 1734.51C3391.17 1736.1 3405.18 1736.72 3417.07 1730.76C3422.22 1728.19 3426.7 1724.49 3431.15 1720.82C3437.78 1715.35 3444.4 1709.87 3451.03 1704.4C3452.91 1702.85 3454.84 1701.26 3457.13 1700.41C3459.89 1699.39 3462.94 1699.52 3465.85 1699.08C3485.54 1695.99 3493.43 1668.11 3513.04 1664.45C3517.58 1663.6 3522.32 1664.21 3526.86 1663.29C3541.93 1660.21 3548.72 1642.44 3561.54 1633.92C3570.66 1627.87 3583.91 1625.39 3587.26 1614.97C3587.64 1613.76 3587.87 1612.43 3587.55 1611.18C3586.07 1605.4 3577.15 1607.68 3571.8 1605.03C3564.65 1601.51 3566.3 1591.14 3564.61 1583.35C3563.45 1578.04 3560.33 1573.42 3557.26 1568.93C3556.3 1567.52 3555.27 1566.05 3553.73 1565.32C3550.55 1563.82 3546.64 1566.36 3545.38 1569.65C3544.1 1572.93 3544.68 1576.6 3545.23 1580.08C3547.31 1593.35 3548.12 1608.42 3539.45 1618.69C3534.23 1624.87 3526.26 1628.32 3521.36 1634.76C3518.28 1638.78 3516.42 1643.95 3512.2 1646.76C3504.98 1651.56 3494.88 1649.29 3487.21 1653.57C3478.35 1658.52 3470.44 1667.9 3462.8 1674.56L3462.77 1674.6Z" stroke="#4066D8" stroke-width="15"/>
<path d="M2111.88 1317.87C2106.6 1324.44 2106.19 1333.66 2107.15 1342.04C2108.12 1350.4 2110.24 1358.82 2109.11 1367.17C2107.48 1379.27 2099.31 1389.51 2096.18 1401.32C2092.99 1413.42 2095.86 1427.43 2105.04 1435.93C2114.23 1444.44 2129.83 1445.82 2139.27 1437.61C2144.75 1432.84 2147.61 1425.81 2150.27 1419.05C2157 1401.96 2163.75 1384.87 2170.48 1367.78C2175.17 1355.86 2179.96 1343.27 2178.18 1330.58C2177.63 1326.67 2176.48 1322.49 2178.15 1318.91C2179.6 1315.78 2182.86 1313.89 2184.76 1311.01C2187.15 1307.38 2187.12 1302.73 2186.99 1298.39L2186.28 1273.27C2186.16 1269.01 2185.85 1264.31 2182.84 1261.31C2179.1 1257.58 2172.54 1258.25 2168.26 1261.35C2163.98 1264.46 2161.43 1269.35 2159.02 1274.07C2154.34 1283.24 2150.15 1298.3 2141.48 1304.23C2132.11 1310.63 2120.13 1308.57 2111.85 1317.89L2111.88 1317.87Z" stroke="#4066D8" stroke-width="15"/>
<path d="M1487.74 644.897C1483.41 655.716 1474.67 669.122 1469.44 679.525C1457.75 702.828 1434.67 710.2 1419.14 731.14C1392.13 767.567 1399.18 809.373 1396.26 854.627C1395.65 864.139 1382.96 874.304 1380.58 885.331C1378.21 896.359 1386.11 908.234 1389.23 917.255C1393.8 930.497 1414.23 934.732 1422.4 946.101C1431.69 959.031 1431.99 979.095 1441.35 993.793C1451.1 1009.12 1470.02 1018.98 1484.48 1027.11C1493.85 1032.37 1506.63 1017.29 1525.65 1016.67C1550.04 1015.86 1577.18 1021.21 1599.29 1015.15C1612.34 1011.57 1627.27 997.211 1637.38 1006.22C1642.05 1010.38 1645.44 1027.93 1650.76 1031.2C1659.33 1036.46 1682.41 1029.58 1691.61 1033.67C1707.41 1040.67 1692.22 1065.81 1692.09 1083.1C1691.91 1106.12 1710.5 1124.64 1722.97 1144.74C1739.91 1172.06 1746.21 1184.98 1745.84 1215.96C1745.71 1226.84 1758.7 1238.97 1756.29 1251.9C1751.91 1275.45 1735.11 1281.55 1730.8 1300.9C1728.45 1311.48 1728.39 1323.67 1729.72 1336.06C1732.08 1358.09 1751.45 1377.91 1756.93 1393.68C1761.49 1406.79 1760.76 1431.55 1767.38 1455.74C1769.13 1462.13 1775.88 1477.96 1788.29 1492.99C1802.47 1510.15 1795.44 1535.39 1798.74 1543.95C1800.89 1549.54 1802.08 1562.47 1807.24 1565.51C1811.67 1568.13 1826.29 1571.23 1831.42 1570.74C1858.2 1568.13 1926.16 1549.83 1942.82 1528.6C1963.08 1502.78 1968.84 1468.05 1989 1442.16C1995.49 1433.82 2003.67 1426.45 2007.51 1416.6C2014.81 1397.87 2004.56 1375.19 2013.59 1357.25C2019.82 1344.89 2033.4 1338.42 2043.72 1329.19C2072.68 1303.26 2073.31 1258.56 2068.27 1220C2063.23 1181.45 2055.22 1139.93 2073.26 1105.49C2089.73 1074.08 2123.79 1056.76 2149.43 1032.26C2177.77 1005.16 2213.59 952.656 2200.45 928.921C2190.09 910.18 2161.97 931.24 2141.09 936.961C2131.77 939.518 2116.78 935.862 2107.91 931.998C2102.15 929.501 2102.33 914.996 2099.27 909.512C2080.32 875.538 2062.7 890.028 2058.76 866.383C2055.49 846.78 2040.33 826.419 2035.23 820.653C2024.32 808.288 2030 791.91 2029.35 790.602C2019.37 770.658 2001.91 752.051 1996.68 731.14C1992.95 716.219 1990.68 701.313 1986.23 686.718C1983.53 677.831 1969.33 660.205 1961.4 655.36C1950.43 648.642 1940.19 660.13 1927.42 658.629C1918.46 657.574 1889.04 659.343 1875.16 644.258C1860.13 627.925 1834.64 631.848 1823.54 640.335C1819.39 643.5 1823.7 656.534 1824.34 661.706C1826.26 676.969 1796.8 650.441 1783.03 643.604C1766.68 635.475 1748.64 643.084 1732.29 634.969C1725.84 631.759 1718.63 627.583 1717.38 620.494C1715.84 611.755 1724.35 604.087 1724.52 595.214C1724.63 588.927 1726.89 579.371 1721.62 576.325C1714.75 572.357 1699.18 575.909 1691 576.102C1685.76 576.221 1671.41 580.872 1663.46 580.887C1646.43 580.932 1632.46 576.666 1615.12 580.233C1599.2 583.503 1588.34 592.539 1581.8 596.566C1557.62 611.443 1550.62 589.596 1529.53 597.22C1519.23 600.951 1518.19 612.855 1510.58 622.054C1502.17 632.22 1492.94 631.848 1487.71 644.927L1487.74 644.897Z" stroke="#4066D8" stroke-width="15"/>
<path d="M1558.96 431.895C1572.23 428.685 1577.22 439.266 1584.25 450.978C1591.62 463.268 1594.21 466.256 1585.75 476.986C1583.3 480.092 1581.98 489.707 1575.31 490.703C1566.21 492.056 1553.19 488.31 1541.99 483.51C1532.85 479.587 1512.83 487.865 1506.51 494.121C1500.22 500.349 1502.99 517.202 1499.51 525.331C1491.66 543.626 1487.93 571.997 1508.01 576.292C1512.25 577.199 1526.87 599.031 1541.33 588.702C1545.91 585.432 1568.45 582.728 1579.23 576.292C1590 569.857 1596.28 565.101 1597.54 555.367C1598.46 548.248 1600.94 534.397 1607.32 527.947C1614.08 521.125 1624.84 521.824 1628.88 518.807C1635.73 513.665 1637.58 498.491 1644.56 493.319C1654.3 486.126 1663.08 494.255 1673.96 493.973C1681.21 493.78 1691.9 478.977 1700.1 480.255C1710.88 481.935 1712 500.482 1720.36 505.089C1726.9 508.686 1735.37 519.297 1745.19 525.346C1755.01 531.38 1766.18 532.836 1770.68 539.064C1774.53 544.384 1775.49 556.378 1768.72 559.32C1760.1 563.05 1742.1 557.462 1735.87 563.036C1731.15 567.256 1744.18 569.798 1751.08 573.692C1757.97 577.585 1763.8 583.337 1770.03 582.193C1775.43 580.231 1763.96 571.21 1769.37 569.783C1776.4 567.925 1782.42 563.957 1785.05 558.027C1786.31 555.174 1782.63 546.331 1787.67 540.386C1794.86 531.885 1802.04 545.618 1805.96 537.771C1810.54 528.631 1779.8 520.308 1777.87 518.168C1771.02 510.603 1763.77 503.484 1755.65 496.603C1747.12 489.366 1733.58 472.691 1740.63 464.591C1745.16 459.374 1753.77 474.147 1770.03 483.54C1777.5 487.85 1809.23 498.565 1809.88 507.72C1810.45 515.597 1813.69 530.325 1818.39 538.424C1824.42 548.887 1832.15 552.603 1832.1 561.297C1832.09 566.35 1833.95 572.592 1837.33 576.322C1848.78 588.94 1853.74 588.301 1862.39 576.292C1871.04 564.269 1855.87 527.486 1870.65 526.669C1876.18 526.357 1885.38 528.125 1888.95 537.117C1892.95 547.252 1885.53 565.949 1894.18 576.322C1899.52 582.728 1914.17 578.863 1917.71 584.169C1921.63 590.054 1933.77 585.165 1945.8 584.823C1951.99 584.645 1963.53 600.517 1972.58 593.963C1984.33 585.462 1997.08 589.95 1999.36 595.925C2001.75 602.182 1999.16 618.203 1997.4 624.668C1993.44 639.113 1985.66 654.302 1987.6 668.45C1990.83 692.021 2005.7 709.261 2017.65 731.167C2022.16 739.431 2041.79 753.579 2046.4 778.205C2049.34 793.884 2060.11 814.795 2077.75 830.474C2095.62 846.361 2097.31 876.59 2106.15 892.7C2109.16 898.17 2112.22 911.248 2118.25 912.794C2138.51 918.025 2141.38 904.56 2148.3 903C2174.44 897.114 2194.69 891.898 2215.6 868.372C2223.85 859.098 2244.34 860.391 2253.49 852.038C2269.13 837.771 2293.15 807.215 2292.7 786.052C2292.05 755.347 2275.61 777.284 2265.92 765.141C2259.19 756.715 2256.76 743.399 2248.28 741.615C2236.52 739.163 2232.66 751.186 2220.67 751.796C2214.71 752.108 2202.93 755.154 2198.62 750.101C2191.39 741.615 2192.44 722.741 2184.25 720.705C2157.1 713.913 2144.33 679.493 2156.36 674.782C2166.43 670.828 2184.64 696.272 2208.43 713.526C2234.58 732.475 2238.13 714.582 2254.82 720.066C2271.51 725.55 2248.28 741.63 2298.6 742.284C2322.85 742.596 2346.87 732.787 2369.16 743.592C2382.93 750.265 2391.16 765.929 2399.87 778.502C2428.63 820.026 2432.55 792.056 2443 806.963C2453.16 821.468 2452.39 843.463 2458.68 861.847C2468.68 891.095 2479.66 903.505 2485.46 931.103C2486.48 936.008 2495.46 937.91 2500.48 946.783C2505.73 956.041 2507.1 972.211 2511.59 974.871C2523.04 981.663 2529.48 970.74 2535.48 958.85C2541.49 946.961 2548.16 931.282 2549.48 918.025C2550.98 902.985 2543.11 889.832 2548.17 876.204C2552.92 863.438 2566.02 860.45 2576.26 849.423C2590.23 834.398 2603.1 812.268 2620.05 803.039C2627.24 799.116 2631.94 787.508 2640.3 786.706C2655.31 785.264 2674.74 786.409 2676.24 798.462C2677.55 808.909 2695.19 823.251 2699.77 836.359C2702.35 843.79 2699.84 857.849 2703.91 864.582C2720.02 891.244 2725.33 865.741 2733.74 869.679C2745.18 875.03 2759.67 898.259 2765.1 919.333C2770.75 941.269 2759.3 948.923 2763.14 967.678C2763.85 971.186 2778.25 991.606 2789.28 1012.75C2794.87 1023.48 2792.01 1033 2797.78 1042.15C2805.11 1053.8 2833.03 1076.27 2840.25 1067.64C2848 1058.38 2836.39 1021.03 2822.41 1004.33C2813.35 993.523 2800.87 986.166 2790.72 976.372C2780.57 966.578 2776.48 945.356 2780.14 931.728C2783.79 918.099 2800.22 917.564 2808.66 928.859C2811.51 932.679 2817.43 939.114 2819.34 943.483C2825.69 958.003 2838.38 976.298 2850.7 973.534C2859.78 971.498 2861.15 944.791 2879.64 936.067C2895.06 928.8 2896.43 908.855 2891.85 889.906C2888.85 877.467 2868.63 868.089 2861.83 860.138C2858.74 856.527 2857.09 843.656 2853.96 839.599C2844.58 827.427 2835.5 822.731 2842.94 810.529C2846.44 804.808 2854.86 794.508 2861.15 794.508C2868.95 794.508 2880.5 814.72 2888.58 812.803C2902.44 809.519 2913.92 797.823 2937.58 774.906C2946.56 766.226 2961.87 768.575 2972.87 757.265C2984.86 744.944 2982.88 718.327 2989.85 707.611C2998.35 694.548 3002.65 666.979 2991.16 649.457C2977.44 628.546 2952.88 612.778 2951.3 597.188C2950.42 588.479 2967.92 583.902 2972.21 576.278C2971.9 572.488 2960.32 563.749 2949.34 563.214C2938.36 562.679 2933.66 574.316 2925.16 567.791C2921.21 564.76 2913.49 542.764 2920.58 537.741C2940.84 523.369 2939.06 554 2948.67 554.728C2958.29 555.456 2964.34 535.66 2968.27 538.395C2984.92 549.957 2992.48 562.307 3010.09 572.369C3018.15 576.976 3015.94 596.296 3025.12 605.689C3031.58 612.303 3038.97 616.627 3047.34 613.536C3062.59 607.903 3052.66 591.793 3043.65 578.254C3039.66 572.25 3039.39 563.794 3032.97 557.344C3024.91 549.259 3011.21 543.076 3014.02 534.471C3016.37 527.293 3026.43 531.202 3031.01 522.716C3036.09 513.278 3028 506.784 3031.66 503.767C3042.76 494.627 3056.43 504.51 3059.09 499.189C3065.74 485.918 3075.47 473.478 3076.74 462.6C3079.19 441.6 3072.5 419.203 3081.97 414.908C3090.41 411.074 3105.31 421.15 3103.53 434.511C3102.22 444.305 3114.57 459.226 3121.83 453.459C3130.55 446.519 3130.42 428.744 3115.45 416.632C3099.61 403.806 3102.65 385.065 3085.24 375.063C3077.11 370.397 3061.71 359.384 3057.15 348.282C3049.12 328.799 3028.32 351.285 3019.4 349.769C2999.42 346.35 2973.71 344.106 2967.63 324.771C2964.78 315.72 2981.43 313.283 2982.01 304.514C2983.97 275.118 3003.9 291.347 3018.57 285.432C3057.15 269.886 3090.47 294.72 3102.22 281.003C3109.54 272.472 3091.92 260.88 3098.95 252.914C3103.86 247.356 3117.84 256.704 3127.04 259.453C3136.24 262.203 3152.81 259.305 3153.18 266.647C3153.84 279.71 3139.07 292.268 3144.68 305.852C3152.53 324.801 3173.17 347.094 3193.68 362.044C3203.94 369.52 3215.68 391.129 3225.04 390.787C3234.4 390.445 3232.89 365.953 3233.54 353.544C3234.3 339.113 3223.09 323.493 3219.82 311.068C3215.51 294.706 3189.74 292.298 3198.97 279.784C3210.02 264.804 3225.72 278.135 3235.5 271.878C3243.34 266.855 3253.06 252.84 3260.99 249.006C3269.33 244.978 3286.35 246.167 3291.04 239.212C3294.85 233.594 3286.82 230.77 3277.98 227.456C3269.14 224.142 3256.28 219.609 3259.68 213.738C3265.57 203.618 3282.38 201.061 3293.66 210.469C3301.51 217.008 3328.82 222.864 3335.48 215.7C3340.93 209.815 3327.62 198.297 3312.61 188.919C3301.62 182.053 3275.96 182.558 3270.79 179.779C3252.55 169.911 3207.31 163.818 3148.61 149.729C3083.27 134.049 3072.9 161.796 3028.39 149.729C3011.31 145.092 2991.25 135.877 2969.58 132.088C2957.77 130.022 2939.78 143.932 2917.97 136.665C2896.86 129.635 2844.79 115.755 2810.81 117.062C2785.31 118.043 2762.08 129.398 2747.44 128.164C2731.51 126.841 2716.77 116.29 2702.37 111.177C2682.11 103.984 2655 110.687 2638.34 109.215C2610.03 106.719 2586.47 112.247 2559.28 103.984C2548.75 100.789 2546.69 83.4003 2533.13 76.549C2518.3 69.0438 2491.94 72.0905 2480.21 69.3559C2455.82 63.6936 2427.94 60.855 2408.99 73.9334C2384.99 90.4894 2356.31 82.4938 2329.93 90.9204C2316.18 95.3046 2307.86 108.829 2292.69 114.447C2265.76 124.404 2235.88 108.071 2211.67 116.408C2201.72 119.841 2199.31 139.058 2180.97 145.805C2170.86 149.521 2158.77 145.879 2146.34 149.075C2138.33 151.126 2130.78 160.786 2122.16 162.792C2109.47 165.75 2100.95 159.092 2087.53 160.83C2076.86 162.213 2065.98 172.363 2054.87 173.894C2043.13 175.514 2032.26 165.274 2020.89 164.754C2016.37 164.546 2009.37 173.359 1998.67 174.548C1987.97 175.737 1972.53 169.97 1964.7 166.047C1948.37 157.888 1936.12 156.966 1919.62 153.637C1905.82 150.843 1898.67 142.238 1883.69 139.266C1875.96 137.735 1867.09 138.24 1858.2 137.958C1848.11 137.646 1838.52 136.338 1828.15 136.65C1821.74 136.843 1818.8 140.633 1811.82 143.189C1804.83 145.746 1792.67 142.862 1786.33 146.459C1779.86 150.115 1775.18 158.155 1770.65 161.484C1760.07 169.272 1748.01 176.673 1734.71 190.881C1724.73 201.552 1718.97 214.853 1711.19 220.932C1694.93 233.653 1679.4 230.503 1664.8 245.112C1653.7 256.213 1666.91 303.667 1686.37 296.727C1699.71 291.971 1705.97 285.372 1710.55 284.317C1719.32 282.281 1722.99 291.555 1734.73 315.022C1738 321.561 1717.74 322.869 1724.28 333.317C1725.32 334.966 1738.56 334.297 1747.15 331.355C1753.66 329.126 1755.51 324.86 1758.91 323.508C1763.65 321.65 1768.23 325.202 1771.97 320.238C1777.03 313.565 1774.78 295.657 1778.51 290.188C1782.69 284.05 1794.12 286.844 1796.15 280.394C1800.88 265.398 1779.52 259.126 1778.51 256.214C1775.18 246.657 1783.09 232.687 1802.69 227.471C1812.77 224.781 1815.59 208.923 1822.29 204.598C1829.16 200.17 1844.35 202.176 1845.82 206.56C1847.48 211.509 1823.51 220.292 1814.46 233.995C1808.26 243.373 1814.88 257.417 1818.39 264.7C1822.61 273.483 1848.44 275.147 1844.53 288.226C1841.7 297.648 1825.83 294.022 1821 302.597C1816.11 311.291 1818.8 323.746 1810.55 331.994C1803.36 339.187 1793.8 334.565 1785.07 337.879C1777.13 340.896 1766.8 347.435 1756.32 348.327C1749.59 348.907 1749.78 340.48 1741.3 339.826C1733.51 339.232 1726.97 346.276 1721.04 343.096C1719.26 342.145 1711.04 338.83 1708.63 333.956C1706.39 329.408 1713.55 324.013 1713.21 317.623C1712.79 310.162 1704.95 301.988 1702.76 301.943C1700.53 301.899 1691.44 310.563 1688.39 320.892C1685.27 331.474 1690.84 340.198 1686.43 345.726C1681.4 351.998 1668.96 352.578 1655.72 362.713C1653.54 364.378 1652.01 373.131 1640.04 381.008C1635.76 383.832 1630.93 386.581 1625.67 389.509C1619.85 392.734 1616.95 397.029 1611.3 401.265C1600.85 409.112 1596.08 401.696 1589.08 403.88C1584.65 405.263 1580.97 412.619 1575.37 414.982C1567.71 418.222 1558.11 416.899 1553.8 416.29C1549.22 415.636 1549.39 419.783 1549.22 424.137C1549.06 428.521 1554.11 432.311 1559.02 431.984L1558.96 431.895Z" stroke="#4066D8" stroke-width="15"/>
<path d="M1505.63 359.788C1505.11 363.429 1502.78 366.506 1501.01 369.731C1499.24 372.956 1498.04 377.013 1499.82 380.238C1502.35 384.801 1509.14 384.712 1513.82 382.408C1518.51 380.104 1522.5 376.27 1527.57 375.036C1532.52 373.833 1538.61 375.007 1542.03 371.217C1545.66 367.204 1543.44 360.621 1545.58 355.657C1547.65 350.856 1553.55 348.047 1554.26 342.876C1554.78 339.086 1552.09 335.445 1548.72 333.646C1545.35 331.848 1541.42 331.491 1537.62 331.164C1533.96 330.852 1529.99 330.615 1526.92 332.621C1524.58 334.137 1523.17 336.693 1521.28 338.729C1517.26 343.084 1512.32 341.731 1508.13 344.436C1503.14 347.661 1506.33 355.092 1505.65 359.803L1505.63 359.788Z" stroke="#4066D8" stroke-width="15"/>
</svg>
